HIERARCHY
ROOT Hips
{
  OFFSET 53.2368 93.5654 7.51221
  CHANNELS 6 Xposition Yposition Zposition Zrotation Xrotation Yrotation
  JOINT spine
  {
    OFFSET 0 7.4756 0.429885
    CHANNELS 3 Zrotation Xrotation Yrotation
    JOINT spine1
    {
      OFFSET 0 9.92301 0
      CHANNELS 3 Zrotation Xrotation Yrotation
      JOINT spine2
      {
        OFFSET 0 9.50804 0
        CHANNELS 3 Zrotation Xrotation Yrotation
        JOINT Neck
        {
          OFFSET 0 24.4111 1.16384
          CHANNELS 3 Zrotation Xrotation Yrotation
          JOINT Head
          {
            OFFSET 0 7.37523 0
            CHANNELS 3 Zrotation Xrotation Yrotation
            End Site
            {
              OFFSET 0 17.8522 -5.88741
            }
          }
        }
        JOINT RightShoulder
        {
          OFFSET -4.00356 10.2679 -0.557468
          CHANNELS 3 Zrotation Xrotation Yrotation
          JOINT RightArm
          {
            OFFSET 0 13.4673 0
            CHANNELS 3 Zrotation Xrotation Yrotation
            JOINT RightArmRoll
            {
              OFFSET 0 6.79858 0
              CHANNELS 3 Zrotation Xrotation Yrotation
              JOINT RightForeArm
              {
                OFFSET 0 19.8018 0
                CHANNELS 3 Zrotation Xrotation Yrotation
                JOINT RightForeArmRoll
                {
                  OFFSET 0 7.62905 0
                  CHANNELS 3 Zrotation Xrotation Yrotation
                  JOINT RightHand
                  {
                    OFFSET 0 15.3098 0
                    CHANNELS 3 Zrotation Xrotation Yrotation
                    End Site
                    {
                      OFFSET 0 0 0
                    }
                  }
                }
              }
            }
          }
        }
        JOINT LeftShoulder
        {
          OFFSET 4.00356 10.2679 -0.557468
          CHANNELS 3 Zrotation Xrotation Yrotation
          JOINT LeftArm
          {
            OFFSET 0 13.4673 0
            CHANNELS 3 Zrotation Xrotation Yrotation
            JOINT LeftArmRoll
            {
              OFFSET 0 6.79857 0
              CHANNELS 3 Zrotation Xrotation Yrotation
              JOINT LeftForeArm
              {
                OFFSET 0 19.8018 0
                CHANNELS 3 Zrotation Xrotation Yrotation
                JOINT LeftForeArmRoll
                {
                  OFFSET 0 7.62905 0
                  CHANNELS 3 Zrotation Xrotation Yrotation
                  JOINT LeftHand
                  {
                    OFFSET 0 15.3098 0
                    CHANNELS 3 Zrotation Xrotation Yrotation
                    End Site
                    {
                      OFFSET 0 0 0
                    }
                  }
                }
              }
            }
          }
        }
      }
    }
  }
  JOINT RightUpLeg
  {
    OFFSET -6.62609 -1.21505 -1.01927
    CHANNELS 3 Zrotation Xrotation Yrotation
    JOINT RightUpLegRoll
    {
      OFFSET 0 17.9517 0
      CHANNELS 3 Zrotation Xrotation Yrotation
      JOINT RightLeg
      {
        OFFSET 0 -22.2304 0
        CHANNELS 3 Zrotation Xrotation Yrotation
        JOINT RightLegRoll
        {
          OFFSET 0 22.3032 0
          CHANNELS 3 Zrotation Xrotation Yrotation
          JOINT RightFoot
          {
            OFFSET 0 18.5636 0
            CHANNELS 3 Zrotation Xrotation Yrotation
            JOINT RightToeBase
            {
              OFFSET 0 15.5183 0
              CHANNELS 3 Zrotation Xrotation Yrotation
              End Site
              {
                OFFSET 0.00657761 7.51539 -0.866263
              }
            }
          }
        }
      }
    }
  }
  JOINT LeftUpLeg
  {
    OFFSET 6.62609 -1.21505 -1.01927
    CHANNELS 3 Zrotation Xrotation Yrotation
    JOINT LeftUpLegRoll
    {
      OFFSET 0 17.9518 0
      CHANNELS 3 Zrotation Xrotation Yrotation
      JOINT LeftLeg
      {
        OFFSET 0 22.2303 0
        CHANNELS 3 Zrotation Xrotation Yrotation
        JOINT LeftLegRoll
        {
          OFFSET 0 22.5093 0
          CHANNELS 3 Zrotation Xrotation Yrotation
          JOINT LeftFoot
          {
            OFFSET 0 18.3575 0
            CHANNELS 3 Zrotation Xrotation Yrotation
            JOINT LeftToeBase
            {
              OFFSET 0 15.5183 0
              CHANNELS 3 Zrotation Xrotation Yrotation
              End Site
              {
                OFFSET -0.029478 7.51539 -0.866263
              }
            }
          }
        }
      }
    }
  }
}
MOTION
Frames: 11
Frame Time: 0.00208333
53.3749 93.705 8.9229 -1.23915 -1.34389 1.21938 0.0711349 -1.89472 -0.0121198 0.141844 0.213347 -0.0311214 0.142273 1.85841 -0.0335056 -1.10607 24.0438 0.501047 1.84307 0.833612 0.28018 33.3129 -11.5517 -7.65616 56.7895 20.0669 48.9008 -6.35349e-06 4.48395e-06 1.87361e-05 -3.69803 2.3409 -1.18016 6.69965e-06 -1.2648e-06 -3.00002 8.03007 -4.95138 0.697622 -40.7163 -10.6332 6.69668 -52.8435 19.4191 -44.8828 7.95512e-06 6.23871e-06 4.9112e-06 3.75302 3.22267 0.392769 7.01516e-06 9.26374e-06 3 -8.03013 -4.95137 -0.697619 -176.674 0.999992 -3.19005 180 7.01562e-15 178.993 178.334 6.93796 179.733 -1.96287e-06 -4.96196e-06 0.0973013 -18.9895 68.5091 19.955 8.13649 25.2327 -3.48774 -178.492 1.8801 2.7828 -1.07169e-05 -4.64205e-06 -1.01436 -2.28616 -7.86304 0.0681571 1.25426e-06 -2.5774e-06 -0.114399 19.2291 68.8495 -20.2489 -8.13649 25.2327 3.48773 
53.3784 93.7057 8.91329 -1.23727 -1.34903 1.21943 0.0704844 -1.89348 -0.0110811 0.140673 0.215829 -0.0290652 0.141074 1.86089 -0.0314277 -1.06835 24.0283 0.485731 1.79216 0.850777 0.273539 33.3183 -11.5544 -7.65879 56.7921 20.0619 48.8956 -6.35349e-06 4.48395e-06 1.87361e-05 -3.69598 2.34269 -1.18017 6.69965e-06 -1.2648e-06 -3.00002 8.03007 -4.95138 0.697622 -40.7104 -10.6316 6.69534 -52.837 19.4172 -44.8879 7.95512e-06 6.23871e-06 4.9112e-06 3.75557 3.21094 0.393092 7.01516e-06 9.26374e-06 3 -8.03013 -4.95137 -0.697619 -176.676 0.997179 -3.18776 180 7.01562e-15 178.992 178.333 6.94229 179.733 -1.96287e-06 -4.96196e-06 0.0974942 -18.9915 68.5114 19.9571 8.13649 25.2327 -3.48774 -178.495 1.8751 2.78538 -1.07169e-05 -4.64205e-06 -1.01436 -2.28379 -7.863 0.0683348 1.25426e-06 -2.5774e-06 -0.114348 19.2282 68.8485 -20.2479 -8.13649 25.2327 3.48773 
53.3674 93.7068 8.93016 -1.23521 -1.35543 1.21871 0.0699037 -1.89203 -0.00991723 0.139569 0.218728 -0.0264915 0.139938 1.86379 -0.0288324 -1.02186 24.0093 0.467042 1.72559 0.874898 0.265137 33.3223 -11.5573 -7.6616 56.7962 20.0563 48.8896 -6.35349e-06 4.48395e-06 1.87361e-05 -3.69375 2.34444 -1.18019 6.69965e-06 -1.2648e-06 -3.00002 8.03007 -4.95138 0.697622 -40.7057 -10.6292 6.69329 -52.8317 19.4113 -44.8909 7.95512e-06 6.23871e-06 4.9112e-06 3.75669 3.20526 0.393145 7.01516e-06 9.26374e-06 3 -8.03013 -4.95137 -0.697619 -176.678 0.99344 -3.18506 180 7.01562e-15 178.992 178.332 6.94765 179.733 -1.96287e-06 -4.96196e-06 0.0976702 -18.9939 68.5141 19.9596 8.13649 25.2327 -3.48774 -178.498 1.86793 2.78789 -1.07169e-05 -4.64205e-06 -1.01437 -2.28153 -7.86199 0.0685422 1.25426e-06 -2.5774e-06 -0.114297 19.227 68.8471 -20.2466 -8.13649 25.2327 3.48773 
53.3695 93.7053 8.92268 -1.23299 -1.36291 1.2173 0.0693865 -1.8904 -0.00864427 0.138527 0.22199 -0.023469 0.138859 1.86705 -0.0257883 -0.968174 23.9872 0.445577 1.64596 0.904838 0.255266 33.325 -11.5602 -7.66458 56.8015 20.0501 48.883 -6.35349e-06 4.48395e-06 1.87361e-05 -3.69138 2.34613 -1.18022 6.69965e-06 -1.2648e-06 -3.00002 8.03007 -4.95138 0.697622 -40.7019 -10.6261 6.69061 -52.8273 19.4021 -44.892 7.95512e-06 6.23871e-06 4.9112e-06 3.75657 3.20494 0.39296 7.01516e-06 9.26374e-06 3 -8.03013 -4.95137 -0.697619 -176.68 0.988911 -3.18203 180 7.01562e-15 178.992 178.331 6.95387 179.733 -1.96287e-06 -4.96196e-06 0.0978309 -18.9967 68.5173 19.9626 8.13649 25.2327 -3.48774 -178.501 1.85887 2.79031 -1.07169e-05 -4.64205e-06 -1.01438 -2.27937 -7.8601 0.0687757 1.25426e-06 -2.5774e-06 -0.114247 19.2254 68.8453 -20.2449 -8.13649 25.2327 3.48773 
53.3644 93.7085 8.95427 -1.23065 -1.37129 1.21532 0.0689267 -1.88862 -0.00727825 0.137545 0.22556 -0.0200663 0.137837 1.87062 -0.022364 -0.908852 23.9627 0.421936 1.55587 0.939457 0.244216 33.3267 -11.5633 -7.66769 56.8078 20.0435 48.8758 -6.35349e-06 4.48395e-06 1.87361e-05 -3.6889 2.34778 -1.18025 6.69965e-06 -1.2648e-06 -3.00002 8.03007 -4.95138 0.697622 -40.6991 -10.6225 6.68743 -52.8238 19.3899 -44.8916 7.95512e-06 6.23871e-06 4.9112e-06 3.75537 3.20926 0.392568 7.01516e-06 9.26374e-06 3 -8.03013 -4.95137 -0.697619 -176.682 0.983727 -3.17871 180 7.01562e-15 178.992 178.33 6.96086 179.733 -1.96287e-06 -4.96196e-06 0.0979778 -18.9998 68.5208 19.9659 8.13649 25.2327 -3.48774 -178.504 1.8482 2.79267 -1.07169e-05 -4.64205e-06 -1.01438 -2.2773 -7.85744 0.0690319 1.25426e-06 -2.5774e-06 -0.114197 19.2235 68.8431 -20.2429 -8.13649 25.2327 3.48773 
53.3636 93.7079 8.94847 -1.22821 -1.38042 1.21284 0.0685178 -1.88671 -0.00583519 0.136618 0.229381 -0.0163518 0.136867 1.87445 -0.0186281 -0.845457 23.9363 0.396715 1.45795 0.97762 0.232277 33.3274 -11.5665 -7.6709 56.815 20.0365 48.8681 -6.35349e-06 4.48395e-06 1.87361e-05 -3.68635 2.34939 -1.18029 6.69965e-06 -1.2648e-06 -3.00002 8.03007 -4.95138 0.697622 -40.697 -10.6183 6.68383 -52.8209 19.3752 -44.8899 7.95512e-06 6.23871e-06 4.9112e-06 3.75328 3.21751 0.392002 7.01516e-06 9.26374e-06 3 -8.03013 -4.95137 -0.697619 -176.684 0.97802 -3.17515 180 7.01562e-15 178.992 178.328 6.96848 179.733 -1.96287e-06 -4.96196e-06 0.0981126 -19.0032 68.5247 19.9695 8.13649 25.2327 -3.48774 -178.507 1.8362 2.79495 -1.07169e-05 -4.64205e-06 -1.01439 -2.27531 -7.85412 0.0693074 1.25426e-06 -2.5774e-06 -0.114148 19.2213 68.8407 -20.2406 -8.13649 25.2327 3.48773 
53.3589 93.7079 8.95023 -1.2257 -1.39011 1.20996 0.0681537 -1.88471 -0.00433114 0.135743 0.233398 -0.0123942 0.135947 1.87846 -0.0146492 -0.779549 23.9088 0.37051 1.35478 1.01819 0.219741 33.3274 -11.5697 -7.67419 56.823 20.0292 48.8602 -6.35349e-06 4.48395e-06 1.87361e-05 -3.68377 2.35097 -1.18034 6.69965e-06 -1.2648e-06 -3.00002 8.03007 -4.95138 0.697622 -40.6956 -10.6138 6.67994 -52.8186 19.3586 -44.8871 7.95512e-06 6.23871e-06 4.9112e-06 3.75048 3.22898 0.391293 7.01516e-06 9.26374e-06 3 -8.03013 -4.95137 -0.697619 -176.686 0.971927 -3.17143 180 7.01562e-15 178.992 178.327 6.97661 179.733 -1.96287e-06 -4.96196e-06 0.0982367 -19.0068 68.5288 19.9733 8.13649 25.2327 -3.48774 -178.511 1.82315 2.79718 -1.07169e-05 -4.64205e-06 -1.0144 -2.27339 -7.85026 0.0695989 1.25426e-06 -2.5774e-06 -0.1141 19.2189 68.8381 -20.2381 -8.13649 25.2327 3.48773 
53.3569 93.7068 8.95578 -1.22316 -1.40019 1.20678 0.0678281 -1.88263 -0.00278213 0.134916 0.237556 -0.00826192 0.135074 1.88262 -0.010496 -0.712687 23.8806 0.343918 1.24897 1.06002 0.206897 33.3267 -11.573 -7.67754 56.8316 20.0216 48.852 -6.35349e-06 4.48395e-06 1.87361e-05 -3.68119 2.35252 -1.18038 6.69965e-06 -1.2648e-06 -3.00002 8.03007 -4.95138 0.697622 -40.6947 -10.6091 6.67586 -52.8167 19.3404 -44.8835 7.95512e-06 6.23871e-06 4.9112e-06 3.74714 3.24294 0.390473 7.01516e-06 9.26374e-06 3 -8.03013 -4.95137 -0.697619 -176.689 0.965581 -3.16758 180 7.01562e-15 178.991 178.325 6.98512 179.733 -1.96287e-06 -4.96196e-06 0.0983517 -19.0105 68.5332 19.9773 8.13649 25.2327 -3.48774 -178.514 1.80931 2.79935 -1.07169e-05 -4.64205e-06 -1.01441 -2.27152 -7.84595 0.0699027 1.25426e-06 -2.5774e-06 -0.114052 19.2163 68.8352 -20.2353 -8.13649 25.2327 3.48773 
53.3573 93.7069 8.95491 -1.22061 -1.41049 1.20339 0.0675347 -1.88051 -0.00120418 0.134133 0.241799 -0.00402361 0.134246 1.88687 -0.00623714 -0.646425 23.8524 0.317533 1.14313 1.10199 0.194037 33.3255 -11.5763 -7.68091 56.8406 20.0138 48.8438 -6.35349e-06 4.48395e-06 1.87361e-05 -3.67866 2.35405 -1.18043 6.69965e-06 -1.2648e-06 -3.00002 8.03007 -4.95138 0.697622 -40.6941 -10.6043 6.67168 -52.8151 19.3212 -44.8794 7.95512e-06 6.23871e-06 4.9112e-06 3.74344 3.25871 0.389574 7.01516e-06 9.26374e-06 3 -8.03013 -4.95137 -0.697619 -176.691 0.959117 -3.16368 180 7.01562e-15 178.991 178.324 6.99391 179.734 -1.96287e-06 -4.96196e-06 0.0984592 -19.0144 68.5376 19.9814 8.13649 25.2327 -3.48774 -178.517 1.79498 2.80147 -1.07169e-05 -4.64205e-06 -1.01441 -2.26971 -7.8413 0.0702156 1.25426e-06 -2.5774e-06 -0.114004 19.2136 68.8321 -20.2324 -8.13649 25.2327 3.48773 
53.3541 93.7104 8.96022 -1.21808 -1.42084 1.19988 0.0672672 -1.87837 0.000386665 0.133391 0.246072 0.000252197 0.133459 1.89114 -0.0019412 -0.582317 23.8247 0.291948 1.03986 1.14295 0.18145 33.3241 -11.5795 -7.68428 56.8499 20.0059 48.8356 -6.35349e-06 4.48395e-06 1.87361e-05 -3.6762 2.35555 -1.18047 6.69965e-06 -1.2648e-06 -3.00002 8.03007 -4.95138 0.697622 -40.6938 -10.5995 6.66753 -52.8136 19.3014 -44.8751 7.95512e-06 6.23871e-06 4.9112e-06 3.73956 3.27555 0.388627 7.01516e-06 9.26374e-06 3 -8.03013 -4.95137 -0.697619 -176.693 0.95267 -3.15977 180 7.01562e-15 178.991 178.322 7.00285 179.734 -1.96287e-06 -4.96196e-06 0.0985608 -19.0184 68.5421 19.9856 8.13649 25.2327 -3.48774 -178.52 1.78043 2.80354 -1.07169e-05 -4.64205e-06 -1.01442 -2.26792 -7.83642 0.070534 1.25426e-06 -2.5774e-06 -0.113958 19.2107 68.8289 -20.2293 -8.13649 25.2327 3.48773 
53.357 93.7086 8.94664 -1.2156 -1.43107 1.19635 0.0670195 -1.87625 0.00197438 0.132687 0.250319 0.00449695 0.132711 1.89539 0.00232318 -0.521913 23.7981 0.267756 0.941744 1.18177 0.169429 33.3224 -11.5828 -7.68762 56.8593 19.9979 48.8276 -6.35349e-06 4.48395e-06 1.87361e-05 -3.67385 2.35705 -1.18051 6.69965e-06 -1.2648e-06 -3.00002 8.03007 -4.95138 0.697622 -40.6937 -10.5949 6.6635 -52.8121 19.2815 -44.8708 7.95512e-06 6.23871e-06 4.9112e-06 3.73568 3.29276 0.387665 7.01516e-06 9.26374e-06 3 -8.03013 -4.95137 -0.697619 -176.695 0.946375 -3.1559 180 7.01562e-15 178.991 178.321 7.01181 179.734 -1.96287e-06 -4.96196e-06 0.098658 -19.0224 68.5466 19.9899 8.13649 25.2327 -3.48774 -178.524 1.76594 2.80558 -1.07169e-05 -4.64205e-06 -1.01443 -2.26617 -7.83142 0.0708546 1.25426e-06 -2.5774e-06 -0.113912 19.2077 68.8257 -20.2262 -8.13649 25.2327 3.48773 
